<?xml version="1.0" encoding="UTF-8"?>
<!DOCTYPE svg PUBLIC "-//W3C//DTD SVG 1.1//EN" "http://www.w3.org/Graphics/SVG/1.1/DTD/svg11.dtd">
<svg xmlns="http://www.w3.org/2000/svg" version="1.1" width="731px" height="703px" style="shape-rendering:geometricPrecision; text-rendering:geometricPrecision; image-rendering:optimizeQuality; fill-rule:evenodd; clip-rule:evenodd" xmlns:xlink="http://www.w3.org/1999/xlink">
<g><path style="opacity:1" fill="#c1b6ac" d="M 557.5,220.5 C 550.246,226.331 546.079,233.998 545,243.5C 543.233,271.849 541.233,300.182 539,328.5C 533.722,364.333 530.722,400.333 530,436.5C 530.142,440.484 531.975,443.15 535.5,444.5C 523.936,465.64 509.936,484.973 493.5,502.5C 470.655,525.434 442.655,539.934 409.5,546C 346.035,558.97 290.035,544.47 241.5,502.5C 241.167,501.5 240.5,500.833 239.5,500.5C 223.582,483.662 210.915,464.662 201.5,443.5C 201.709,442.078 202.209,440.745 203,439.5C 203.656,422.816 203.323,406.15 202,389.5C 195.882,341.322 191.549,292.989 189,244.5C 188.221,234.604 184.054,226.604 176.5,220.5C 188.766,151.057 228.1,104.224 294.5,80C 328.355,68.6514 363.022,65.3181 398.5,70C 457.847,77.5587 503.347,106.392 535,156.5C 546.217,176.657 553.717,197.991 557.5,220.5 Z"/></g>
<g><path style="opacity:1" fill="#9d9189" d="M 557.5,220.5 C 560.885,222.909 563.051,226.243 564,230.5C 565.851,239.086 567.184,247.753 568,256.5C 571.84,306.259 567.507,355.259 555,403.5C 551.218,416.852 545.885,429.519 539,441.5C 537.961,442.71 536.794,443.71 535.5,444.5C 531.975,443.15 530.142,440.484 530,436.5C 530.722,400.333 533.722,364.333 539,328.5C 541.233,300.182 543.233,271.849 545,243.5C 546.079,233.998 550.246,226.331 557.5,220.5 Z"/></g>
<g><path style="opacity:1" fill="#9c9088" d="M 176.5,220.5 C 184.054,226.604 188.221,234.604 189,244.5C 191.549,292.989 195.882,341.322 202,389.5C 203.323,406.15 203.656,422.816 203,439.5C 202.209,440.745 201.709,442.078 201.5,443.5C 198.169,444.927 195.669,443.927 194,440.5C 185.308,424.428 178.974,407.428 175,389.5C 165.985,345.935 162.985,301.935 166,257.5C 166.494,246.214 168.494,235.214 172,224.5C 172.876,222.365 174.376,221.031 176.5,220.5 Z"/></g>
<g><path style="opacity:1" fill="#817263" d="M 266.5,237.5 C 291.071,235.858 306.571,246.858 313,270.5C 314.736,295.758 303.236,310.925 278.5,316C 256.543,316.712 242.376,306.545 236,285.5C 233.041,260.992 243.208,244.992 266.5,237.5 Z"/></g>
<g><path style="opacity:1" fill="#312b27" d="M 269.5,246.5 C 293.998,247.495 305.165,260.162 303,284.5C 296.835,302.341 284.335,309.508 265.5,306C 248.904,298.983 242.071,286.483 245,268.5C 249.323,256.667 257.49,249.333 269.5,246.5 Z"/></g>
<g><path style="opacity:1" fill="#f8f7f7" d="M 262.5,260.5 C 270.775,259.706 273.942,263.373 272,271.5C 267.162,277.036 262.829,276.703 259,270.5C 258.182,266.469 259.349,263.136 262.5,260.5 Z"/></g>
<g><path style="opacity:1" fill="#827263" d="M 454.5,237.5 C 478.13,236.225 493.297,246.892 500,269.5C 502.097,294.165 491.264,309.665 467.5,316C 444.044,317.528 429.21,307.028 423,284.5C 420.666,260.034 431.166,244.368 454.5,237.5 Z"/></g>
<g><path style="opacity:1" fill="#312b27" d="M 455.5,246.5 C 474.085,245.367 485.918,253.7 491,271.5C 491.937,295.477 480.437,307.31 456.5,307C 438.536,302.021 430.369,290.188 432,271.5C 434.892,258.443 442.726,250.11 455.5,246.5 Z"/></g>
<g><path style="opacity:1" fill="#f1f1f0" d="M 450.5,260.5 C 457.657,260.155 460.824,263.488 460,270.5C 455.333,277.167 450.667,277.167 446,270.5C 445.077,266.017 446.577,262.683 450.5,260.5 Z"/></g>
<g><path style="opacity:1" fill="#a79d95" d="M 493.5,502.5 C 492.144,514.133 491.144,525.8 490.5,537.5C 440.805,565.399 387.472,575.566 330.5,568C 299.246,563.198 270.579,552.032 244.5,534.5C 243.62,523.821 242.62,513.155 241.5,502.5C 290.035,544.47 346.035,558.97 409.5,546C 442.655,539.934 470.655,525.434 493.5,502.5 Z"/></g>
<g><path style="opacity:1" fill="#a39991" d="M 239.5,500.5 C 240.5,500.833 241.167,501.5 241.5,502.5C 242.62,513.155 243.62,523.821 244.5,534.5C 244.5,538.167 244.5,541.833 244.5,545.5C 290.219,571.962 339.552,582.462 392.5,577C 418.55,574.76 443.55,568.427 467.5,558C 475.24,554.717 482.407,550.55 489,545.5C 489.232,546.737 489.732,547.737 490.5,548.5C 490.598,554.987 491.598,561.32 493.5,567.5C 420.636,602.725 345.969,606.892 269.5,580C 260.26,576.38 251.26,572.214 242.5,567.5C 240.548,569.228 239.215,571.395 238.5,574C 244.17,578.17 250.17,581.837 256.5,585C 290.431,599.74 325.931,606.573 363,605.5C 401.55,606.621 438.716,600.121 474.5,586C 482.348,582.581 489.682,578.414 496.5,573.5C 498.086,575.67 499.42,578.004 500.5,580.5C 433.448,611.672 363.781,618.839 291.5,602C 271.333,596.891 251.999,589.724 233.5,580.5C 237.546,574.066 240.213,567.066 241.5,559.5C 271.245,577.529 303.578,588.029 338.5,591C 383.864,594.71 427.864,588.71 470.5,573C 476.991,569.922 483.325,566.588 489.5,563C 490.293,559.889 490.126,556.723 489,553.5C 468.98,564.286 447.813,572.12 425.5,577C 362.293,590.681 302.126,582.515 245,552.5C 243.97,552.164 243.47,551.497 243.5,550.5C 243.356,533.729 242.023,517.063 239.5,500.5 Z"/></g>
<g><path style="opacity:1" fill="#c2b7ad" d="M 244.5,534.5 C 270.579,552.032 299.246,563.198 330.5,568C 387.472,575.566 440.805,565.399 490.5,537.5C 490.5,541.167 490.5,544.833 490.5,548.5C 489.732,547.737 489.232,546.737 489,545.5C 482.407,550.55 475.24,554.717 467.5,558C 443.55,568.427 418.55,574.76 392.5,577C 339.552,582.462 290.219,571.962 244.5,545.5C 244.5,541.833 244.5,538.167 244.5,534.5 Z"/></g>
<g><path style="opacity:1" fill="#c2b7ad" d="M 243.5,550.5 C 243.47,551.497 243.97,552.164 245,552.5C 302.126,582.515 362.293,590.681 425.5,577C 447.813,572.12 468.98,564.286 489,553.5C 490.126,556.723 490.293,559.889 489.5,563C 483.325,566.588 476.991,569.922 470.5,573C 427.864,588.71 383.864,594.71 338.5,591C 303.578,588.029 271.245,577.529 241.5,559.5C 242.088,556.39 242.755,553.39 243.5,550.5 Z"/></g>
<g><path style="opacity:1" fill="#c2b7ad" d="M 493.5,567.5 C 494.486,569.426 495.486,571.426 496.5,573.5C 489.682,578.414 482.348,582.581 474.5,586C 438.716,600.121 401.55,606.621 363,605.5C 325.931,606.573 290.431,599.74 256.5,585C 250.17,581.837 244.17,578.17 238.5,574C 239.215,571.395 240.548,569.228 242.5,567.5C 251.26,572.214 260.26,576.38 269.5,580C 345.969,606.892 420.636,602.725 493.5,567.5 Z"/></g>
<g><path style="opacity:1" fill="#a49992" d="M 232.5,582.5 C 231.797,584.716 230.464,586.549 228.5,588C 229.167,588.667 229.833,589.333 230.5,590C 310.812,627.496 392.812,631.496 476.5,602C 486.924,597.954 496.924,593.121 506.5,587.5C 508.858,589.529 511.192,591.529 513.5,593.5C 512.504,593.586 511.671,593.252 511,592.5C 467.457,616.538 420.79,627.871 371,626.5C 323.786,627.324 278.619,618.157 235.5,599C 230.777,596.978 226.443,594.478 222.5,591.5C 225.833,588.5 229.167,585.5 232.5,582.5 Z"/></g>
<g><path style="opacity:1" fill="#c1b7ad" d="M 233.5,580.5 C 251.999,589.724 271.333,596.891 291.5,602C 363.781,618.839 433.448,611.672 500.5,580.5C 502.471,582.808 504.471,585.142 506.5,587.5C 496.924,593.121 486.924,597.954 476.5,602C 392.812,631.496 310.812,627.496 230.5,590C 229.833,589.333 229.167,588.667 228.5,588C 230.464,586.549 231.797,584.716 232.5,582.5C 232.328,581.508 232.662,580.842 233.5,580.5 Z"/></g>
<g><path style="opacity:1" fill="#c0b6ab" d="M 222.5,591.5 C 226.443,594.478 230.777,596.978 235.5,599C 278.619,618.157 323.786,627.324 371,626.5C 420.79,627.871 467.457,616.538 511,592.5C 511.671,593.252 512.504,593.586 513.5,593.5C 519.035,596.189 524.202,599.522 529,603.5C 529.667,605.5 529.667,607.5 529,609.5C 526.861,612.001 524.361,614.168 521.5,616C 472.867,641.33 421.034,653.163 366,651.5C 314.563,652.147 265.73,641.314 219.5,619C 214.446,616.611 209.946,613.445 206,609.5C 205.333,607.167 205.333,604.833 206,602.5C 211.615,598.947 217.115,595.28 222.5,591.5 Z"/></g>
</svg>
